<?xml version="1.0" encoding="UTF-8" standalone="no"?>
<svg width="56px" height="57px" viewBox="0 0 56 57" version="1.1" xmlns="http://www.w3.org/2000/svg" xmlns:xlink="http://www.w3.org/1999/xlink" xmlns:sketch="http://www.bohemiancoding.com/sketch/ns">
    <!-- Generator: Sketch 3.3.1 (12005) - http://www.bohemiancoding.com/sketch -->
    <title>Path 4 + Path 5</title>
    <desc>Created with Sketch.</desc>
    <defs></defs>
    <g id="Page-1" stroke="none" stroke-width="1" fill="none" fill-rule="evenodd" sketch:type="MSPage">
        <g id="Desktop-Landscape" sketch:type="MSArtboardGroup" transform="translate(-678.000000, -307.000000)">
            <g id="Path-4-+-Path-5" sketch:type="MSLayerGroup" transform="translate(678.000000, 307.000000)">
                <path d="M8.85877879,56.7109375 L0.0189350379,56.6464844 L11.9447163,30.7939453 L33.6204975,30.5439453 L22.2503804,7.72167969 L25.8451069,0.912109375 L41.0990132,0.846679688 C41.0990132,0.846679688 46.6937053,1.8360978 50.7015522,5.56640625 C53.799953,8.45024655 55.4879654,13.7893787 55.8050679,16.4541016 C56.1105647,19.0212985 56.2993206,24.8542915 53.8704975,28.7788086 C50.9555938,33.4887397 45.2972554,36.1259766 45.2972554,36.1259766 L55.8050679,56.3183594 L47.5208882,56.3105469 L38.3665913,38.2509766 L17.3412007,38.2509766 L8.85877879,56.7109375 Z" id="Path-4" fill="#FFFFFF" sketch:type="MSShapeGroup"></path>
                <path d="M46.3334961,11.3544921 C45.2584486,10.2777784 43.6004683,9.17444244 41.796875,8.63574219 C37.4294368,7.33126848 31.6679688,8.63574219 31.6679688,8.63574219 L41.796875,29.6904297 L48.1064453,26.4228508 L49.71875,21.958008 C49.71875,21.958008 48.6931077,13.4111328 48.1064453,13.4111328 C47.8483835,13.4111328 47.3678299,12.3904291 46.3334961,11.3544921 Z" id="Path-5" fill="#11141F" sketch:type="MSShapeGroup"></path>
            </g>
        </g>
    </g>
</svg>